<svg width="24" height="24" viewBox="0 0 24 24" fill="none" xmlns="http://www.w3.org/2000/svg">
<path fill-rule="evenodd" clip-rule="evenodd" d="M17 2H7C4.23858 2 2 4.23858 2 7V17C2 19.7614 4.23858 22 7 22H17C19.7614 22 22 19.7614 22 17V7C22 4.23858 19.7614 2 17 2ZM15.9997 11.3703C16.1231 12.2025 15.981 13.0525 15.5935 13.7993C15.206 14.5461 14.5929 15.1517 13.8413 15.53C13.0898 15.9082 12.2382 16.0399 11.4075 15.9062C10.5768 15.7726 9.80947 15.3804 9.21455 14.7855C8.61962 14.1905 8.22744 13.4232 8.09377 12.5925C7.96011 11.7619 8.09177 10.9102 8.47003 10.1587C8.84829 9.40716 9.45389 8.79404 10.2007 8.40654C10.9475 8.01904 11.7975 7.87689 12.6297 8.0003C13.4786 8.12619 14.2646 8.52176 14.8714 9.12861C15.4782 9.73545 15.8738 10.5214 15.9997 11.3703ZM18.8876 6.46057C18.9845 6.27387 19.02 6.06138 18.9892 5.85332C18.9577 5.64109 18.8588 5.4446 18.7071 5.29289C18.5554 5.14118 18.3589 5.04229 18.1467 5.01082C17.9386 4.97996 17.7261 5.0155 17.5394 5.11238C17.3527 5.20925 17.2013 5.36253 17.1068 5.55041C17.0122 5.73829 16.9793 5.9512 17.0127 6.15887C17.0461 6.36653 17.1442 6.55838 17.2929 6.70711C17.4416 6.85584 17.6335 6.95388 17.8411 6.9873C18.0488 7.02071 18.2617 6.9878 18.4496 6.89323C18.6375 6.79867 18.7907 6.64727 18.8876 6.46057Z" fill="#003D7A"/>
</svg>
