<svg width="89" height="49" viewBox="0 0 89 49" fill="none" xmlns="http://www.w3.org/2000/svg">
<path d="M65.3864 43.3522C64.901 45.1069 63.669 46.2829 61.6904 46.8802C59.8984 47.4029 58.293 47.2162 56.8744 46.3202C55.3437 45.3869 54.8584 44.0055 55.4184 42.1762C55.9037 40.0855 56.837 36.7442 58.2184 32.1522C59.5997 27.5602 60.5704 24.3309 61.1304 22.4642C62.437 17.8349 63.2584 14.7735 63.5944 13.2802C64.7517 9.54686 65.573 7.2322 66.0584 6.3362C66.581 5.4402 67.029 4.8242 67.4024 4.4882C67.7757 4.11486 68.373 3.68553 69.1944 3.2002C70.053 2.71486 70.9677 2.34153 71.9384 2.08019C72.909 1.81886 73.8797 1.65086 74.8504 1.57619C75.821 1.46419 76.8104 1.38953 77.8184 1.35219C78.8264 1.27753 79.9464 1.09086 81.1784 0.792193C81.6637 0.792193 82.093 0.75486 82.4664 0.680194C82.877 0.605526 83.269 0.549526 83.6424 0.512193C84.501 0.437527 85.341 0.530861 86.1624 0.792193C87.021 1.05353 87.6557 1.52019 88.0664 2.19219C88.5144 2.86419 88.7384 3.62953 88.7384 4.4882C88.7384 5.34686 88.5517 6.26153 88.1784 7.23219C87.8424 8.20286 87.357 9.13619 86.7224 10.0322C85.341 11.9735 83.605 13.3549 81.5144 14.1762C80.0584 14.6242 79.013 14.8482 78.3784 14.8482C77.7437 14.8482 77.2957 14.7735 77.0344 14.6242C76.8104 14.4749 76.6797 14.3629 76.6424 14.2882C76.605 14.2135 76.4744 14.3442 76.2504 14.6802C75.9144 15.1655 75.6717 15.7069 75.5224 16.3042C75.373 16.9015 75.205 17.3495 75.0184 17.6482C74.8317 17.9095 74.5704 18.4509 74.2344 19.2722C73.9357 20.0935 73.5437 20.7842 73.0584 21.3442C72.573 21.8669 72.293 22.1842 72.2184 22.2962L77.1464 21.7922C77.9304 21.7175 78.6024 21.8855 79.1624 22.2962C79.7597 22.6695 80.1704 23.1362 80.3944 23.6962C80.6557 24.2562 80.7304 24.8162 80.6184 25.3762C80.5064 25.8989 80.1704 26.3095 79.6104 26.6082C79.0504 26.8695 78.677 27.1495 78.4904 27.4482C78.341 27.7095 78.2104 27.9709 78.0984 28.2322C77.9864 28.4935 77.837 28.7549 77.6504 29.0162C77.501 29.2775 77.1464 29.5202 76.5864 29.7442C75.3917 30.3042 73.0957 30.7522 69.6984 31.0882C69.5117 31.6482 69.2504 32.3202 68.9144 33.1042C68.6157 33.8509 68.2984 34.6349 67.9624 35.4562C66.9917 37.9575 66.4317 39.4695 66.2824 39.9922C66.1704 40.5149 66.077 40.9442 66.0024 41.2802C65.7784 42.2882 65.573 42.9789 65.3864 43.3522Z" fill="#003D7A"/>
<path d="M37.1715 43.3522C36.6862 45.1069 35.4542 46.2829 33.4755 46.8802C31.6835 47.4029 30.0782 47.2162 28.6595 46.3202C27.1288 45.3869 26.6435 44.0055 27.2035 42.1762C27.6888 40.0855 28.6222 36.7442 30.0035 32.1522C31.3848 27.5602 32.3555 24.3309 32.9155 22.4642C34.2222 17.8349 35.0435 14.7735 35.3795 13.2802C36.5368 9.54686 37.3582 7.2322 37.8435 6.3362C38.3662 5.4402 38.8142 4.8242 39.1875 4.4882C39.5608 4.11486 40.1582 3.68553 40.9795 3.2002C41.8382 2.71486 42.7528 2.34153 43.7235 2.08019C44.6942 1.81886 45.6648 1.65086 46.6355 1.57619C47.6062 1.46419 48.5955 1.38953 49.6035 1.35219C50.6115 1.27753 51.7315 1.09086 52.9635 0.792193C53.4489 0.792193 53.8782 0.75486 54.2515 0.680194C54.6622 0.605526 55.0542 0.549526 55.4275 0.512193C56.2862 0.437527 57.1262 0.530861 57.9475 0.792193C58.8062 1.05353 59.4409 1.52019 59.8515 2.19219C60.2995 2.86419 60.5235 3.62953 60.5235 4.4882C60.5235 5.34686 60.3368 6.26153 59.9635 7.23219C59.6275 8.20286 59.1422 9.13619 58.5075 10.0322C57.1262 11.9735 55.3902 13.3549 53.2995 14.1762C51.8435 14.6242 50.7982 14.8482 50.1635 14.8482C49.5289 14.8482 49.0809 14.7735 48.8195 14.6242C48.5955 14.4749 48.4648 14.3629 48.4275 14.2882C48.3902 14.2135 48.2595 14.3442 48.0355 14.6802C47.6995 15.1655 47.4568 15.7069 47.3075 16.3042C47.1582 16.9015 46.9902 17.3495 46.8035 17.6482C46.6169 17.9095 46.3555 18.4509 46.0195 19.2722C45.7209 20.0935 45.3289 20.7842 44.8435 21.3442C44.3582 21.8669 44.0782 22.1842 44.0035 22.2962L48.9315 21.7922C49.7155 21.7175 50.3875 21.8855 50.9475 22.2962C51.5449 22.6695 51.9555 23.1362 52.1795 23.6962C52.4409 24.2562 52.5155 24.8162 52.4035 25.3762C52.2915 25.8989 51.9555 26.3095 51.3955 26.6082C50.8355 26.8695 50.4622 27.1495 50.2755 27.4482C50.1262 27.7095 49.9955 27.9709 49.8835 28.2322C49.7715 28.4935 49.6222 28.7549 49.4355 29.0162C49.2862 29.2775 48.9315 29.5202 48.3715 29.7442C47.1769 30.3042 44.8809 30.7522 41.4835 31.0882C41.2969 31.6482 41.0355 32.3202 40.6995 33.1042C40.4009 33.8509 40.0835 34.6349 39.7475 35.4562C38.7769 37.9575 38.2169 39.4695 38.0675 39.9922C37.9555 40.5149 37.8622 40.9442 37.7875 41.2802C37.5635 42.2882 37.3582 42.9789 37.1715 43.3522Z" fill="#003D7A"/>
<path d="M15.7823 29.52C14.7743 32.432 13.7477 35.232 12.7023 37.92C11.657 40.608 10.7797 42.6427 10.0703 44.024C9.39835 45.4427 8.80101 46.4133 8.27835 46.936C7.75568 47.4587 7.21435 47.8133 6.65435 48C6.13168 48.1867 5.59034 48.2613 5.03034 48.224C4.50768 48.1867 3.96635 48.1493 3.40635 48.112C0.270345 47.6267 -0.700322 45.368 0.494345 41.336C1.27834 38.1253 1.91301 35.512 2.39834 33.496C2.88368 31.4427 3.27568 29.7627 3.57435 28.456C3.91035 27.112 4.19035 26.0107 4.41435 25.152C4.63835 24.256 4.88101 23.3787 5.14234 22.52C5.40368 21.6613 5.72101 20.6907 6.09435 19.608C6.50501 18.5253 7.02768 17.088 7.66234 15.296C6.24368 15.4827 4.97435 15.3333 3.85435 14.848C2.21168 14.1387 1.53968 12.608 1.83835 10.256C1.98768 9.17333 2.56635 8.16533 3.57435 7.232C4.09701 6.74667 4.71301 6.224 5.42234 5.664C6.87834 4.50667 9.77168 3.27467 14.1023 1.968C18.5823 0.624 22.4277 -0.0106671 25.6383 0.0639986C26.497 -0.0853328 27.3743 0.026668 28.2703 0.400001C29.2037 0.736001 29.9503 1.20267 30.5103 1.8C31.0703 2.39733 31.3503 3.05067 31.3503 3.76C31.3877 4.46933 30.9397 5.104 30.0063 5.664C29.5583 5.96267 29.241 6.46667 29.0543 7.176C28.8677 7.848 28.6623 8.576 28.4383 9.36C28.2143 10.1067 27.8783 10.7973 27.4303 11.432C27.0197 12.0667 26.3477 12.44 25.4143 12.552C24.929 12.8133 24.2383 13 23.3423 13.112C22.4837 13.224 21.905 13.3173 21.6063 13.392C21.345 13.4293 21.1957 13.5227 21.1583 13.672C20.4863 15.6507 19.6837 18.0587 18.7503 20.896C17.817 23.696 16.8277 26.5707 15.7823 29.52ZM8.22235 14.68C8.14768 14.68 8.11035 14.6987 8.11035 14.736C8.11035 14.736 8.14768 14.736 8.22235 14.736V14.68Z" fill="#003D7A"/>
</svg>
