<svg width="24" height="24" viewBox="0 0 24 24" fill="none" xmlns="http://www.w3.org/2000/svg">
<path d="M22.7708 3.76634C22.8639 3.50525 22.5676 3.29426 22.33 3.437C21.6113 3.86868 20.8447 4.21637 20.0451 4.47274C19.9328 4.50877 19.8109 4.4724 19.7296 4.38679C19.1444 3.7699 18.3945 3.33127 17.567 3.12422C16.6767 2.90145 15.7395 2.95749 14.8821 3.28474C14.0247 3.612 13.2884 4.19469 12.773 4.95401C12.2575 5.71332 11.9877 6.61263 12 7.53029V8.23797C12 8.40062 11.8703 8.5341 11.7077 8.53386C10.0499 8.53138 8.41416 8.14226 6.93101 7.39574C5.41407 6.63221 4.10229 5.51771 3.1041 4.14591C3.03922 4.05675 2.97462 4.05758 2.93417 4.16016C2.46159 5.35858 -0.181616 12.993 7.50501 16.769C7.71621 16.8727 7.74712 17.17 7.54651 17.293C5.94334 18.2759 4.12877 18.8539 2.2597 18.9822C1.94448 19.0038 1.83888 19.4384 2.12626 19.5697C10.8913 23.5755 21 18.5246 21 7.50029C20.9993 7.27518 20.9816 7.05052 20.9473 6.8282C20.932 6.72923 20.9631 6.62836 21.0329 6.55658C21.8075 5.7603 22.3994 4.80804 22.7708 3.76634Z" fill="#003D7A"/>
</svg>
